<svg xmlns="http://www.w3.org/2000/svg" id="Livello_1" data-name="Livello 1" viewBox="0 0 260.18 149.05"><defs><style></style></defs><path class="cls-1" d="M130.51,0l37.69,30.66v50.21h-76.22V31.75M158.03,69.01v-31.75l-27.37-21.47c-8.13,6.44,0,0-27.67,21.35v31.88h16.94v-23.71h21.17v23.71h16.94-.01ZM140.25,69.86h-18.63l8.89,10.15s9.74-10.15,9.74-10.15Z"></path><g><g id="Raggruppa_1" data-name="Raggruppa 1"><path id="Tracciato_58" data-name="Tracciato 58" class="cls-1" d="M.03,148.28v-49.45h18.49c3.3-.1,6.58.58,9.56,1.99,2.47,1.22,4.52,3.16,5.87,5.56,1.37,2.54,2.06,5.39,1.99,8.28.07,2.86-.62,5.69-2.01,8.2-1.38,2.35-3.45,4.23-5.93,5.37-3.03,1.35-6.32,1.99-9.63,1.89H5.16v-7.34h12.05c1.87.07,3.73-.26,5.47-.94,1.33-.55,2.44-1.53,3.15-2.77.71-1.36,1.06-2.88,1.01-4.42.04-1.57-.31-3.13-1.03-4.53-.71-1.28-1.83-2.29-3.17-2.87-1.75-.73-3.63-1.07-5.53-1h-8.25v42.02H0h.03ZM27.84,148.28l-12.02-22.44h9.69l12.25,22.44h-9.93.01Z"></path><path id="Tracciato_59" data-name="Tracciato 59" class="cls-1" d="M59.51,149.04c-3.37.09-6.7-.72-9.64-2.36-2.67-1.56-4.83-3.86-6.21-6.64-2.89-6.4-2.9-13.74-.03-20.15,1.34-2.78,3.45-5.13,6.08-6.76,2.79-1.67,5.99-2.52,9.24-2.44,2.2,0,4.38.36,6.46,1.1,2.04.73,3.89,1.88,5.44,3.38,1.66,1.64,2.93,3.63,3.71,5.83.95,2.7,1.41,5.55,1.35,8.41v2.73h-30.34v-5.88h26.07l-4.05,1.73c.04-1.88-.29-3.74-.96-5.5-1.16-3.18-4.26-5.22-7.63-5.03-1.71-.05-3.4.41-4.85,1.35-1.32.89-2.37,2.13-3.04,3.58-.71,1.56-1.07,3.27-1.05,4.98v4.05c-.06,2.05.35,4.08,1.19,5.94.72,1.53,1.89,2.8,3.35,3.65,1.53.84,3.26,1.27,5.01,1.23,1.17.02,2.34-.17,3.45-.54,1-.34,1.91-.9,2.68-1.63.76-.73,1.34-1.64,1.69-2.64l7.94,1.63c-.58,1.97-1.64,3.76-3.07,5.23-1.52,1.55-3.36,2.74-5.39,3.49-2.36.87-4.87,1.29-7.38,1.25h-.04.02Z"></path><path id="Tracciato_60" data-name="Tracciato 60" class="cls-1" d="M91.94,126.53v21.74h-8.63v-37.11h8.17l.13,9.16h-.69c.78-2.81,2.39-5.32,4.6-7.22,2.17-1.66,4.84-2.51,7.57-2.41,2.33-.05,4.63.51,6.67,1.63,1.92,1.1,3.46,2.76,4.43,4.75,1.11,2.38,1.66,4.98,1.58,7.6v23.6h-8.66v-22.27c.12-2.12-.56-4.21-1.92-5.84-1.37-1.45-3.31-2.23-5.31-2.12-1.42-.02-2.83.32-4.08,1-1.2.67-2.18,1.68-2.82,2.91-.72,1.42-1.07,3.01-1.03,4.6h-.02v-.02Z"></path><path id="Tracciato_61" data-name="Tracciato 61" class="cls-1" d="M142.07,111.17v6.77h-21.08v-6.77h21.08ZM126.27,102.35h8.63v35.49c-.09,1.06.22,2.12.86,2.97.77.7,1.79,1.04,2.82.94.53-.01,1.06-.06,1.58-.15.66-.1,1.18-.19,1.58-.28l1.36,6.67c-.95.29-1.93.5-2.92.61-.95.12-1.9.18-2.86.18-2.97.2-5.91-.75-8.2-2.66-2-1.99-3.04-4.75-2.86-7.57v-36.23.02h0Z"></path><path id="Tracciato_63" data-name="Tracciato 63" class="cls-1" d="M214.24,105.92c-1.32.02-2.59-.48-3.53-1.4-.95-.84-1.48-2.05-1.48-3.32-.01-1.28.53-2.51,1.48-3.37.95-.91,2.22-1.4,3.53-1.38,1.32-.02,2.6.47,3.57,1.38.95.84,1.49,2.06,1.48,3.34.01,1.28-.53,2.5-1.48,3.35-.96.92-2.24,1.42-3.57,1.4ZM209.92,148.28v-37.11h8.63v37.11h-8.63Z"></path><path id="Tracciato_64" data-name="Tracciato 64" class="cls-1" d="M236.35,126.53v21.74h-8.63v-37.11h8.17l.13,9.16h-.7c.78-2.81,2.39-5.32,4.6-7.22,2.17-1.66,4.84-2.51,7.57-2.41,2.33-.05,4.63.51,6.67,1.63,1.92,1.1,3.46,2.76,4.43,4.75,1.12,2.37,1.66,4.98,1.58,7.6v23.6h-8.63v-22.27c.12-2.12-.56-4.21-1.92-5.84-1.37-1.45-3.31-2.23-5.31-2.12-1.42-.03-2.83.32-4.08,1-1.2.67-2.18,1.68-2.82,2.91-.72,1.42-1.07,3.01-1.03,4.6h-.04v-.02Z"></path></g><path class="cls-1" d="M159.47,148.27l-10.48-37.1h8.91l6.52,26.09h.34l6.67-26.09h8.82l6.67,25.94h.36l6.42-25.94h8.94l-10.51,37.1h-9.11l-6.96-25.07h-.51l-6.96,25.07h-9.13Z"></path></g></svg>